# Blender v3.1.0 Alpha OBJ File: ''
# www.blender.org
mtllib trickyy.mtl
o Plane
v -1.000000 -0.289211 0.700812
v 1.000000 -0.289211 0.700812
v -1.000000 1.137480 -0.700812
v 1.000000 1.137480 -0.700812
v -1.000000 -1.049255 0.700812
v 1.000000 -1.049255 0.700812
v -1.000000 0.377437 -0.700812
v 1.000000 0.377437 -0.700812
vt 0.000000 0.000000
vt 1.000000 0.000000
vt 1.000000 1.000000
vt 0.000000 1.000000
vt 0.000000 0.000000
vt 1.000000 0.000000
vt 1.000000 1.000000
vt 0.000000 1.000000
vn 0.0000 0.7008 0.7133
usemtl Material.003
s off
f 5/1/1 6/2/1 8/3/1 7/4/1
usemtl Material.004
f 1/5/1 2/6/1 4/7/1 3/8/1
